<?xml version="1.0" standalone="no"?>
<!DOCTYPE svg PUBLIC "-//W3C//DTD SVG 20010904//EN"
 "http://www.w3.org/TR/2001/REC-SVG-20010904/DTD/svg10.dtd">
<svg version="1.0" xmlns="http://www.w3.org/2000/svg"
 width="426.000000pt" height="426.000000pt" viewBox="0 0 426.000000 426.000000"
 preserveAspectRatio="xMidYMid meet">
<metadata>
Created by potrace 1.11, written by Peter Selinger 2001-2013
</metadata>
<g transform="translate(0.000000,426.000000) scale(0.100000,-0.100000)"
fill="#000000" stroke="none">
<path d="M2088 4186 c-1 -2 -48 -6 -103 -10 -265 -16 -535 -91 -779 -216 -204
-104 -363 -222 -550 -406 -57 -57 -168 -197 -231 -294 -115 -176 -235 -449
-271 -615 -2 -11 -11 -51 -19 -90 -39 -175 -53 -473 -30 -650 58 -455 263
-873 584 -1195 302 -302 672 -495 1091 -570 229 -40 561 -33 775 17 17 4 35 7
40 8 45 5 218 63 320 106 142 59 228 107 375 205 122 81 287 233 398 367 215
257 381 603 436 912 3 17 8 39 10 50 2 11 7 49 11 85 4 36 9 79 11 95 6 41 5
267 -2 340 -27 324 -153 681 -333 948 -308 457 -774 767 -1306 871 -119 23
-139 25 -275 32 -69 3 -130 7 -137 9 -6 2 -13 2 -15 1z m287 -170 c155 -26
353 -77 435 -113 292 -127 452 -233 645 -427 159 -161 262 -303 355 -491 95
-193 153 -379 185 -590 13 -87 13 -401 0 -485 -23 -145 -26 -162 -51 -258 -92
-356 -327 -721 -609 -950 -38 -31 -72 -60 -75 -63 -16 -20 -211 -138 -305
-184 -275 -134 -552 -195 -860 -189 -174 3 -208 6 -323 30 -380 76 -708 251
-976 520 -473 474 -658 1158 -490 1808 96 370 316 719 607 961 27 22 54 45 62
52 7 7 56 41 108 76 241 161 552 276 822 303 27 3 51 7 53 9 6 6 373 -2 417
-9z"/>
<path d="M991 2778 c-11 -4 -18 -16 -17 -30 1 -22 6 -23 85 -28 118 -8 119
-10 95 -190 -3 -25 -8 -52 -11 -60 -3 -8 -7 -26 -8 -40 -3 -25 -43 -263 -51
-304 -2 -12 -9 -48 -14 -81 -6 -33 -12 -71 -15 -85 -8 -46 -56 -325 -61 -355
-2 -16 -7 -41 -9 -55 -3 -14 -7 -34 -9 -45 -9 -49 -27 -102 -39 -118 -12 -18
-32 -23 -112 -31 -22 -3 -43 -5 -47 -5 -5 -1 -8 -14 -8 -30 l0 -29 276 0 275
-1 -3 32 c-3 30 -4 31 -58 34 -123 7 -129 17 -100 182 12 64 22 125 24 136 5
31 16 91 36 200 10 55 21 116 25 135 3 19 10 58 15 85 5 28 19 102 30 165 12
63 23 126 26 140 2 14 6 34 8 45 2 11 7 40 12 65 4 25 8 47 9 50 1 3 5 28 9
55 4 28 11 56 14 62 17 28 187 36 281 13 72 -17 139 -80 156 -146 40 -160 -49
-333 -206 -398 -51 -21 -82 -27 -179 -32 -46 -2 -88 -8 -93 -13 -4 -4 83 -145
195 -313 112 -168 229 -348 261 -401 l58 -97 144 1 145 0 0 28 c0 23 -6 28
-43 38 -23 7 -57 25 -74 42 -17 16 -114 152 -214 302 -255 379 -243 359 -221
359 35 0 147 42 202 75 94 57 169 142 207 236 23 57 23 199 0 249 -34 77 -129
140 -234 156 -60 9 -738 11 -762 2z"/>
<path d="M2433 2779 c-17 -6 -28 -45 -15 -53 5 -3 33 -6 63 -6 70 -3 117 -17
121 -38 3 -15 -6 -89 -26 -197 -2 -16 -8 -50 -11 -75 -4 -25 -13 -81 -20 -125
-8 -44 -21 -125 -30 -180 -8 -55 -17 -111 -19 -125 -3 -14 -12 -68 -20 -120
-9 -52 -18 -104 -20 -115 -2 -11 -7 -42 -10 -70 -9 -66 -46 -243 -57 -271 -12
-32 -39 -44 -106 -47 -61 -2 -73 -9 -73 -44 l0 -21 293 1 292 2 3 28 c2 15 0
28 -5 28 -11 2 -101 7 -139 8 -16 1 -38 7 -47 13 -33 26 -34 17 53 508 16 91
31 179 34 195 3 17 14 80 25 140 11 61 22 126 26 145 13 77 25 146 30 170 3
14 8 45 11 70 11 80 17 87 76 95 105 15 224 3 287 -30 29 -14 100 -88 102
-105 3 -20 4 -25 13 -38 4 -7 10 -46 12 -86 9 -206 -102 -390 -268 -439 -52
-16 -109 -14 -187 9 -29 8 -55 13 -58 10 -3 -2 -2 -18 2 -35 5 -25 15 -33 63
-52 225 -84 517 75 607 332 26 73 30 101 29 204 -1 118 -21 172 -83 228 -93
84 -128 90 -569 91 -199 1 -370 -2 -379 -5z"/>
</g>
</svg>
